# xmcd
#
# Track frame offsets: 
#        150
#        9520
#        19940
#        30737
#        40975
#        54212
#        63000
#        73820
#        85290
#        96500
#        110722
#        122447
#        133192
#        142710
#        160387
#        171327
#        182115
#        195820
#        206745
#        220790
#        231305
#        243147
#        255342
#        269315
#        279192
#        291095
#        301407
#        312860
#
# Disc length: 4313 seconds
#
# Revision: 6
# Processed by: cddbd v1.5.2PL0 Copyright (c) Steve Scherf et al.
# Submitted via: ExactAudioCopy v0.99pb5
#
DISCID=8a10d71c
DTITLE=Various Artist - Really!! They Sing It In German - Vol. III
DYEAR=1999
DGENRE=Schlager
TTITLE0=Swinging Blue Jeans - Good Golly Miss Molly (Deutsch)
TTITLE1=Beatles - Sie liebt dich
TTITLE2=Trini Lopez - Michaela (Live)
TTITLE3=Lulu - Wenn du da bist
TTITLE4=Rob de Neys - Ich nehm' dich wie du bist
TTITLE5=Milli - My Boy Lollipop (Deutsch)
TTITLE6=John Leyton - Wann bist du bei mir
TTITLE7=France Gall - Die schönste Musik, die es gibt
TTITLE8=Hep Stars - Die Spieluhr
TTITLE9=Antoine - Ich, Antoine
TTITLE10=Joey Dee - Bitte bitte Baby
TTITLE11=Sandie Shaw - Wiedehopf im Mai
TTITLE12=Swinging Blue Jeans - Das ist prima
TTITLE13=Michel Polnareff - Ich will dich lieben
TTITLE14=Beatles - Komm, gib mir deine Hand
TTITLE15=Trini Lopez - Bye, Bye Blondie (Deutsch)
TTITLE16=Rob de Neys - Dass ich dich liebe
TTITLE17=Honeycombs - Hab' ich das Recht
TTITLE18=Michel Polnareff - Love me please love me (Deutsch)
TTITLE19=Sylvie Vartan - La chanson (Deutsch)
TTITLE20=Hep Stars - Komm Little Thom
TTITLE21=France Gall - Samstag und Sonntag
TTITLE22=Antoine - Ich sag' was mir gefällt!
TTITLE23=Joey Dee - Joey's Party
TTITLE24=Sandie Shaw - Was kann ich dafür
TTITLE25=Honeycombs - Du sollst nicht traurig sein
TTITLE26=Georges Moustaki - Ich bin ein Fremder
TTITLE27=Sylvie Vartan - Nur ein Lächeln blieb
EXTD=AAD-Beat 004
EXTT0=
EXTT1=
EXTT2=
EXTT3=
EXTT4=
EXTT5=
EXTT6=
EXTT7=
EXTT8=
EXTT9=
EXTT10=
EXTT11=
EXTT12=
EXTT13=
EXTT14=
EXTT15=
EXTT16=
EXTT17=
EXTT18=
EXTT19=
EXTT20=
EXTT21=
EXTT22=
EXTT23=
EXTT24=
EXTT25=
EXTT26=
EXTT27=
PLAYORDER=
